<?xml version="1.0" encoding="UTF-8" standalone="no"?>
<!-- Generator: Adobe Illustrator 18.1.0, SVG Export Plug-In . SVG Version: 6.00 Build 0)  -->

<svg
   version="1.1"
   id="Gopher"
   x="0px"
   y="0px"
   viewBox="0 0 215.6 301.6"
   enable-background="new 0 0 215.6 281.6"
   xml:space="preserve"
   sodipodi:docname="gopher-gops.svg"
   width="215.60001"
   height="301.60001"
   inkscape:version="1.2.1 (9c6d41e410, 2022-07-14)"
   xmlns:inkscape="http://www.inkscape.org/namespaces/inkscape"
   xmlns:sodipodi="http://sodipodi.sourceforge.net/DTD/sodipodi-0.dtd"
   xmlns="http://www.w3.org/2000/svg"
   xmlns:svg="http://www.w3.org/2000/svg"><defs
   id="defs143"><rect
     x="72.466759"
     y="242.86157"
     width="172.35337"
     height="69.528917"
     id="rect11234" /></defs><sodipodi:namedview
   id="namedview141"
   pagecolor="#ffffff"
   bordercolor="#000000"
   borderopacity="0.25"
   inkscape:showpageshadow="2"
   inkscape:pageopacity="0.0"
   inkscape:pagecheckerboard="0"
   inkscape:deskcolor="#d1d1d1"
   showgrid="false"
   inkscape:zoom="9.1430984"
   inkscape:cx="90.450738"
   inkscape:cy="246.52475"
   inkscape:window-width="1728"
   inkscape:window-height="963"
   inkscape:window-x="0"
   inkscape:window-y="38"
   inkscape:window-maximized="0"
   inkscape:current-layer="Gopher" />
<g
   id="g138"
   transform="translate(0,23.004291)">
	<path
   fill="#8cc5e7"
   d="m 207.3,44.6 c -6.7,-13.7 -22.9,-1.6 -27,-5.9 -21,-21.6 -46.4,-27 -66.3,-28 0,0 -9,0 -11,0 -20,0.5 -45.4,6.3 -66.3,28 -4.1,4.3 -20.4,-7.8 -27,5.9 -7.7,16 15.7,17.6 14.5,24.7 -2.3,12.8 -0.8,31.8 1,50.5 2.8,31.7 -20.9,107.6 28.4,138.1 9.3,5.8 34.4,9 56.2,9.5 v 0 c 0,0 0.1,0 0.1,0 0,0 0.1,0 0.1,0 v 0 c 21.8,-0.5 43.9,-3.7 53.2,-9.5 49.4,-30.5 25.7,-106.4 28.6,-138.1 1.7,-18.7 3.2,-37.7 1,-50.5 -1.2,-7.1 22.2,-8.8 14.5,-24.7 z"
   id="path100" />
	<g
   id="g108">
		<path
   fill="#e0dedc"
   d="m 143.95833,65.3051 c -33.4,3.9 -28.9,38.7 -16,50 24,21 49,0 46.2,-21.199997 -2.5,-20.400003 -19.8,-30.000003 -30.2,-28.800003 z"
   id="path102-7"
   style="fill:#784e78;fill-opacity:1;stroke:none" /><path
   fill="#e0dedc"
   d="m 143.2,54.3 c -33.4,3.9 -28.9,38.7 -16,50 24,21 49,0 46.2,-21.2 -2.5,-20.4 -19.8,-30 -30.2,-28.8 z"
   id="path102" />
		<circle
   fill="#111212"
   cx="145.5"
   cy="84.300003"
   r="11.4"
   id="circle104" />
		<circle
   fill="#ffffff"
   cx="142.5"
   cy="79.400002"
   r="3.5999999"
   id="circle106" />
	</g>
	<g
   id="g116">
		<path
   fill="#b8937f"
   d="m 108.5,107 c -16,2.4 -21.7,7 -20.5,14.2 2,11.8 39.7,10.5 40.9,0.6 1,-8.5 -14.1,-15.7 -20.4,-14.8 z"
   id="path110" />
		<path
   d="m 98.2,111.8 c -2.7,9.8 21.7,8.3 21.1,2 -0.3,-3.7 -3.6,-8.4 -12.3,-8.2 -3.4,0.1 -7.6,1.6 -8.8,6.2 z"
   id="path112" />
		<path
   fill="#e0dedc"
   d="m 99,127.7 c -0.9,0.4 -2.4,10.2 2.2,10.7 3.1,0.3 11.6,1.3 13.6,0 3.9,-2.5 3.5,-8.5 1.3,-10 C 112.4,126 100,127.2 99,127.7 Z"
   id="path114" />
	</g>
	<g
   id="g124">
		<path
   fill="#e0dedc"
   d="m 73.6,54.3 c 33.4,3.9 28.9,38.7 16,50 -24,21 -49,0 -46.2,-21.2 2.6,-20.4 19.9,-30 30.2,-28.8 z"
   id="path118" />
		<circle
   fill="#111212"
   cx="71.400002"
   cy="84.300003"
   r="11.4"
   id="circle120" />
		<circle
   fill="#ffffff"
   cx="74.400002"
   cy="79.400002"
   r="3.5999999"
   id="circle122" />
	</g>
	<path
   fill="#b8937f"
   d="m 193.6,186.7 c 11,0.1 5.6,-23.5 -1.2,-18.8 -3.3,2.3 -3.9,7.6 -3.9,12.1 0,2.5 2,6.6 5.1,6.7 z"
   id="path126" />
	<path
   fill="#b8937f"
   d="m 23.3,186.7 c -11,0.1 -5.6,-23.5 1.2,-18.8 3.3,2.3 3.9,7.6 3.9,12.1 0,2.5 -2,6.6 -5.1,6.7 z"
   id="path128" />
	<path
   fill="#b8937f"
   d="m 172.7,259.2 c -6,-8.9 -11.4,-2 -20.1,2.4 -4.1,2.1 6.8,9.6 19,4 3.2,-1.5 3.1,-3.5 1.1,-6.4 z"
   id="path130"
   style="fill:#000000" />
	<path
   fill="#b8937f"
   d="m 44.2,260.2 c 6,-8.9 11.4,-2 20.1,2.4 4.1,2.1 -6.8,9.6 -19,4 -3.2,-1.5 -3.1,-3.5 -1.1,-6.4 z"
   id="path132"
   style="fill:#000000" />
	<path
   fill="#3c89bf"
   d="m 188.6,47 c -0.6,2.1 2.1,1.8 3.1,8.3 0.4,2.4 9,-3.5 5.5,-7.8 -2.9,-3.6 -8.1,-2.6 -8.6,-0.5 z"
   id="path134" />
	<path
   fill="#3c89bf"
   d="m 28.3,47 c 0.6,2.1 -2.1,1.8 -3.1,8.3 -0.4,2.4 -9,-3.5 -5.5,-7.8 2.8,-3.6 8,-2.6 8.6,-0.5 z"
   id="path136" />
</g>
<path
   style="fill:#000000"
   d="m 21.847682,214.6604 c 2.839451,-4.30725 57.761632,3.58294 86.642448,3.58294 28.88081,0 75.36739,7.57321 84.25999,-2.39171 8.89259,-9.96492 -0.95835,34.22096 -8.90674,46.33279 -7.94839,12.11183 -25.29353,26.43521 -52.16665,27.94919 -26.87312,1.51397 -69.53796,1.73969 -88.841186,-16.04955 C 23.532318,256.29481 19.008231,218.96765 21.847682,214.6604 Z"
   id="path350"
   sodipodi:nodetypes="zszsssz" /><g
   id="g3122"
   transform="matrix(1.8197275,1.1402895,-1.1380825,1.9837647,266.22261,-217.88607)"><g
     id="g12125"
     transform="translate(-1.09629,-3.204209)"><path
       style="fill:#ffffff;stroke:none;stroke-width:1;stroke-linecap:butt;stroke-linejoin:miter;stroke-dasharray:none"
       d="m 61.534295,202.84645 c 0,0 -3.825376,-1.7951 -2.447054,-5.79223 1.378323,-3.99714 2.054375,-4.08793 2.054375,-4.08793 0,0 2.907586,3.5366 2.494089,5.87975 -0.413496,2.34314 -2.10141,4.00041 -2.10141,4.00041 z"
       id="path2217"
       sodipodi:nodetypes="cscsc" /><path
       style="fill:#ffffff;stroke:none;stroke-width:0.793509;stroke-linecap:butt;stroke-linejoin:miter;stroke-dasharray:none"
       d="m 63.007904,204.31627 c 0,0 -0.792048,-3.22807 2.399126,-4.34465 3.191181,-1.11659 3.586473,-0.74639 3.586473,-0.74639 0,0 -0.757158,3.5199 -2.43034,4.41646 -1.673175,0.89656 -3.555259,0.67458 -3.555259,0.67458 z"
       id="path2217-5"
       sodipodi:nodetypes="cscsc" /><path
       style="fill:#ffffff;stroke:none;stroke-width:0.793509;stroke-linecap:butt;stroke-linejoin:miter;stroke-dasharray:none"
       d="m 59.628226,204.30241 c 0,0 0.792048,-3.22807 -2.399126,-4.34465 -3.191181,-1.11659 -3.586473,-0.74639 -3.586473,-0.74639 0,0 0.757158,3.5199 2.43034,4.41646 1.673175,0.89656 3.555259,0.67458 3.555259,0.67458 z"
       id="path2217-5-7"
       sodipodi:nodetypes="cscsc" /></g></g><g
   id="g3314"
   transform="matrix(1.6837186,0,0,2.5835321,-55.063965,-274.2769)"><path
     style="fill:none;stroke:#000000;stroke-width:2;stroke-linecap:butt;stroke-linejoin:miter;stroke-dasharray:none"
     d="m 110.64456,191.62133 c 0,0 -22.252028,-4.05921 -12.892631,-6.52221 7.117831,-3.50746 13.178501,2.15114 12.892631,6.52221 z"
     id="path3241"
     sodipodi:nodetypes="ccc" /><path
     style="fill:none;stroke:#000000;stroke-width:2;stroke-linecap:butt;stroke-linejoin:miter;stroke-dasharray:none"
     d="m 111.28338,191.22752 c 0,0 3.78902,-6.39399 9.70938,-6.39399 5.92036,0 -9.70938,6.39399 -9.70938,6.39399 z"
     id="path3310" /></g><path
   style="fill:#ffffff;stroke:none;stroke-width:2;stroke-linecap:butt;stroke-linejoin:miter;stroke-dasharray:none"
   d="m 31.660998,214.93193 c -1.137398,0.39121 3.355387,26.17902 7.685887,39.02479 4.3305,12.84577 9.915922,21.32597 10.715883,22.12314 0.799961,0.79717 5.242263,3.40605 6.337325,3.39163 1.095062,-0.0144 -5.069703,-4.66362 -11.222689,-26.66279 -6.152986,-21.99917 -6.422686,-37.03963 -7.185678,-37.52065 -0.762992,-0.48102 -5.19333,-0.74733 -6.330728,-0.35612 z"
   id="path3316"
   sodipodi:nodetypes="zzzzzzz" /><path
   style="fill:#ffffff;stroke:none;stroke-width:2;stroke-linecap:butt;stroke-linejoin:miter;stroke-dasharray:none"
   d="m 41.855482,215.48268 c -0.989615,0.82008 3.415631,26.23926 7.746131,39.08503 4.3305,12.84577 10.695798,26.38531 11.703277,27.01157 1.007479,0.62626 4.934548,2.43771 5.871488,2.36244 0.93694,-0.0753 -5.59126,-8.52286 -11.744246,-30.52203 -6.152986,-21.99917 -6.333749,-37.06089 -7.185678,-37.56081 -0.851929,-0.49992 -5.401357,-1.19628 -6.390972,-0.3762 z"
   id="path3316-4"
   sodipodi:nodetypes="zzzzzzz"
   inkscape:transform-center-x="16.873429"
   inkscape:transform-center-y="-5.9285021" /><path
   style="fill:#ffffff;stroke:none;stroke-width:2;stroke-linecap:butt;stroke-linejoin:miter;stroke-dasharray:none"
   d="m 51.839094,216.05659 c -0.93178,0.65613 3.335306,26.01837 7.665806,38.86414 4.3305,12.84577 11.360346,29.28518 12.102641,29.73937 0.742295,0.4542 4.041872,1.63679 4.989856,1.33296 0.947984,-0.30383 -5.108992,-10.22118 -11.261978,-32.22035 -6.152986,-21.99917 -5.892038,-36.55012 -7.085273,-37.42025 -1.193235,-0.87013 -5.479272,-0.952 -6.411052,-0.29587 z"
   id="path3316-4-3"
   sodipodi:nodetypes="zzzzzzz"
   inkscape:transform-center-x="16.873429"
   inkscape:transform-center-y="-5.9285021" /><path
   style="fill:#1a1a1a;stroke:none;stroke-width:2;stroke-linecap:butt;stroke-linejoin:miter;stroke-dasharray:none"
   d="M 53.901392,47.376192 C 60.079154,15.676174 153.64582,5.8836802 174.38184,31.692218 c 18.84691,23.999937 22.85216,33.80967 5.58702,36.289416 -13.73778,1.973121 -44.71055,-0.3648 -72.52091,-4.602721 C 79.637565,59.140993 54.989591,53.003072 53.901392,47.376192 Z"
   id="path5612"
   sodipodi:nodetypes="ccscc" /><text
   xml:space="preserve"
   id="text11232"
   style="white-space:pre;shape-inside:url(#rect11234);display:inline;fill:#ffffff;fill-opacity:1;stroke:#ffffff;stroke-width:0.3;stroke-linecap:round;stroke-linejoin:miter;stroke-dasharray:none"
   transform="matrix(0.69405444,0.37368898,-0.3725316,0.69626957,169.41489,44.931383)"><tspan
     x="72.466797"
     y="253.47852"
     id="tspan412">Adibass</tspan></text></svg>
